<svg width="30" height="30" viewBox="0 0 27 30" fill="none" xmlns="http://www.w3.org/2000/svg" role="img"><g clip-path="url(#clip0_1817_23230)"><path d="M13.2288 30L26.4575 25.6V14.4H13.2288V30Z" fill="#365FF6"></path><path d="M26.4575 0L19.8431 2.65455L13.2288 0V14.4H26.4575V0Z" fill="#2848BA"></path><path d="M13.2287 30L0 25.6V14.4H13.2287V30Z" fill="#2848BA"></path><path d="M13.2287 0L6.61435 2.65455L0 0V14.4H13.2287V0Z" fill="#365FF6"></path><path fill-rule="evenodd" clip-rule="evenodd" d="M16.48 21.8546L13.2289 18.7273L10.0151 21.8546H13.2289H16.48Z" fill="white"></path><path fill-rule="evenodd" clip-rule="evenodd" d="M7.66064 7.70911V12.8364C7.66064 15.7818 10.1644 18.2182 13.266 18.2182C16.3677 18.2182 18.8714 15.8182 18.8714 12.8364V7.70911H7.66064Z" fill="white"></path><path fill-rule="evenodd" clip-rule="evenodd" d="M19.3948 14.4H20.9643L22.5712 9.67273H21.0016L19.3948 14.4Z" fill="white"></path><path fill-rule="evenodd" clip-rule="evenodd" d="M7.06284 14.4H5.5307L3.92383 9.67273H5.45597L7.06284 14.4Z" fill="white"></path><path d="M46.604 19.709V18.6545C45.894 19.4545 44.6608 19.9272 43.5024 19.9272C40.737 19.9272 38.4575 17.709 38.4575 15.0545C38.4575 12.3999 40.737 10.1818 43.5024 10.1818C44.6608 10.1818 45.894 10.6909 46.604 11.4545V10.3999H48.5472V19.709H46.604ZM40.5502 15.0545C40.5502 16.7272 41.8207 17.9999 43.5397 17.9999C45.2961 17.9999 46.6414 16.7999 46.6414 15.0545C46.6414 13.309 45.2961 12.109 43.5397 12.109C41.8207 12.109 40.5502 13.3818 40.5502 15.0545Z" fill="white"></path><path d="M52.9569 6.58179V19.7091H51.0137V6.58179H52.9569Z" fill="white"></path><path d="M57.3289 6.58179V19.7091H55.3857V6.58179H57.3289Z" fill="white"></path><path d="M68.9509 19.9272C66.2229 19.9272 63.906 17.6727 63.906 15.0545C63.906 12.3636 66.1855 10.1818 68.9509 10.1818C70.8193 10.1818 72.3141 11.0909 73.1736 12.3999L71.6788 13.4909C71.0062 12.6545 70.0719 12.1454 68.9509 12.1454C67.344 12.1454 65.9613 13.4909 65.9613 15.0909C65.9613 16.6545 67.3066 18.0363 68.9882 18.0363C70.1467 18.0363 71.1183 17.4909 71.7909 16.5454L73.3604 17.4909C72.4636 18.9818 70.8193 19.9272 68.9509 19.9272Z" fill="white"></path><path d="M83.6744 10.4V19.7091H81.7312V18.7273C81.0212 19.4909 79.9001 19.9637 79.0032 19.9637C76.2005 19.9637 74.8179 18.3273 74.8179 15.9273V10.4H76.7984V15.7455C76.7984 17.0909 77.77 18.0364 79.1153 18.0364C80.6475 18.0364 81.7312 16.8 81.7312 15.5637V10.4H83.6744Z" fill="white"></path><path d="M86.1033 10.3999H88.0465V11.4181C88.7565 10.6545 89.9897 10.1454 91.1481 10.1454C93.9508 10.1454 96.2303 12.3999 96.2303 15.0181C96.2303 17.709 93.9508 19.8908 91.1481 19.8908C89.9897 19.8908 88.7565 19.3818 88.0465 18.6181V22.9454H86.1033V10.3999ZM88.0465 15.0545C88.0465 16.7999 89.3918 17.9999 91.1481 17.9999C92.9045 17.9999 94.1377 16.6908 94.1377 15.0545C94.1377 13.4181 92.9045 12.109 91.1481 12.109C89.3918 12.109 88.0465 13.309 88.0465 15.0545Z" fill="white"></path><path d="M104.19 14.9818C105.162 15.6727 105.386 16.509 105.348 17.309C105.274 18.109 104.825 18.8727 104.078 19.309C103.368 19.7454 102.321 19.9636 101.275 19.9636C99.6309 19.9636 97.9866 19.0909 97.2766 18.3636L98.5472 16.8727C99.5561 17.7818 100.715 18.0363 101.611 18.0363C102.434 18.0363 103.218 17.7454 103.33 17.2363C103.443 16.7272 103.069 16.3636 101.798 16.0727C100.677 15.7818 99.2198 15.309 98.6966 14.9454C97.9866 14.4363 97.6129 13.8181 97.6129 12.9818C97.5756 12.2545 97.9866 11.5272 98.5472 11.0181C99.2198 10.4363 100.341 10.1818 101.35 10.1818C102.807 10.2181 104.04 10.7272 104.863 11.3454L103.667 12.7999C102.77 12.1454 101.948 12.0363 101.238 12.0363C100.117 11.9999 99.6309 12.3999 99.5935 12.7999C99.5561 13.2363 100.042 13.5272 101.686 13.9999C102.733 14.2545 103.741 14.6181 104.19 14.9818Z" fill="white"></path></g><defs><clipPath id="clip0_1817_23230"><rect width="106" height="30" fill="white"></rect></clipPath></defs></svg>